<?xml version="1.0" standalone="no"?>
<!DOCTYPE svg PUBLIC "-//W3C//DTD SVG 20010904//EN"
 "http://www.w3.org/TR/2001/REC-SVG-20010904/DTD/svg10.dtd">
<svg version="1.0" xmlns="http://www.w3.org/2000/svg"
 width="200.000000pt" height="150.000000pt" viewBox="0 0 200.000000 150.000000"
 preserveAspectRatio="xMidYMid meet">

<g transform="translate(0.000000,150.000000) scale(0.100000,-0.100000)"
fill="#000000" stroke="none">
<path d="M152 1339 c-50 -25 -85 -68 -102 -124 -8 -28 -10 -166 -8 -470 3
-414 4 -432 24 -470 11 -22 40 -53 63 -70 l43 -30 796 -3 c556 -2 808 0 835 8
47 14 106 65 123 107 20 48 20 909 0 956 -17 39 -71 92 -109 106 -19 8 -288
11 -825 11 -793 0 -797 0 -840 -21z m1656 -28 c42 -22 63 -43 86 -88 14 -28
16 -85 16 -458 0 -398 -1 -428 -19 -463 -22 -42 -43 -63 -88 -86 -30 -15 -107
-16 -821 -14 l-788 3 -37 25 c-22 15 -48 46 -62 74 l-25 50 0 405 c0 236 4
421 10 442 11 41 62 96 105 115 24 11 188 13 808 14 744 0 779 -1 815 -19z"/>
<path d="M202 1279 c-23 -12 -51 -33 -62 -48 -38 -54 -41 -101 -38 -491 3
-332 5 -379 20 -406 24 -44 72 -81 118 -94 26 -7 284 -10 778 -8 l738 3 41 27
c24 16 49 44 62 70 20 43 21 57 21 431 0 326 -2 393 -15 424 -21 50 -42 72
-90 94 -38 17 -84 19 -785 19 -738 0 -745 0 -788 -21z m266 -187 c7 -5 10 -16
6 -26 -5 -13 -14 -15 -39 -10 -18 3 -35 1 -39 -4 -9 -16 4 -41 25 -47 79 -25
57 -135 -28 -135 -18 0 -33 2 -33 4 0 2 -3 11 -6 20 -5 12 1 16 24 16 16 0 36
7 43 16 11 14 10 19 -11 35 -67 49 -78 81 -40 119 21 21 74 27 98 12z m312
-39 c0 -37 3 -44 12 -35 7 7 27 12 44 12 63 0 95 -80 54 -133 -19 -24 -27 -26
-85 -25 l-65 1 0 113 c0 107 1 114 20 114 17 0 20 -7 20 -47z m350 9 l0 -38
48 0 c44 1 48 -1 62 -31 16 -35 30 -43 30 -18 0 26 38 55 73 55 38 0 65 -24
69 -61 3 -22 -2 -25 -49 -33 -29 -5 -53 -13 -53 -18 0 -14 47 -20 68 -9 15 8
23 8 27 1 12 -20 -17 -40 -58 -40 -44 0 -77 22 -77 52 0 10 -4 18 -10 18 -5 0
-10 -7 -10 -15 0 -34 -36 -54 -99 -53 l-61 1 0 113 c0 107 1 114 20 114 17 0
20 -7 20 -38z m-506 -54 c9 -12 16 -33 16 -45 0 -19 -7 -23 -50 -29 -27 -4
-50 -11 -50 -16 0 -16 32 -22 61 -11 33 13 48 1 29 -22 -18 -21 -93 -19 -113
3 -25 28 -30 67 -13 100 18 34 28 40 73 41 22 1 37 -6 47 -21z m426 0 c11 -12
20 -32 20 -44 0 -20 -7 -23 -55 -29 -46 -6 -53 -10 -44 -21 13 -16 43 -18 69
-4 13 7 19 6 24 -5 7 -19 -23 -35 -65 -35 -69 0 -103 77 -58 134 27 34 79 36
109 4z m420 12 c0 -7 6 -7 19 0 29 15 41 12 41 -9 0 -13 -8 -21 -22 -23 -20
-3 -23 -10 -26 -60 -3 -49 -6 -58 -21 -58 -16 0 -19 10 -23 73 -3 39 -3 75 -1
80 6 11 33 8 33 -3z m104 -161 c-22 -25 -49 -26 -39 -1 4 9 9 25 12 34 3 9 12
18 22 20 23 5 26 -29 5 -53z m-514 -273 l0 -113 -64 -1 c-52 -1 -67 2 -82 19
-25 27 -24 91 0 118 21 23 75 28 94 9 9 -9 12 -2 12 35 0 40 3 47 20 47 19 0
20 -7 20 -114z m67 88 c8 -21 -13 -42 -28 -27 -13 13 -5 43 11 43 6 0 13 -7
17 -16z m183 6 c13 -8 13 -11 0 -24 -18 -19 -46 -5 -37 18 7 18 16 20 37 6z
m78 -13 c2 -11 -3 -17 -17 -17 -23 0 -35 15 -26 31 10 15 39 6 43 -14z m-801
1 c-3 -12 -73 -21 -90 -11 -18 11 8 23 49 23 32 0 44 -4 41 -12z m-10 -50 c7
-5 14 -5 17 1 4 6 12 8 19 5 8 -3 12 -30 12 -79 1 -66 -1 -75 -17 -75 -10 0
-18 5 -18 10 0 7 -6 7 -19 0 -70 -37 -135 35 -105 115 14 35 78 48 111 23z
m-244 0 c4 -10 7 -10 18 0 17 15 61 16 77 0 7 -7 12 -40 12 -80 0 -61 -2 -68
-20 -68 -18 0 -20 7 -20 59 0 45 -4 60 -16 65 -27 10 -43 -13 -46 -67 -3 -44
-6 -52 -23 -52 -18 0 -20 7 -22 70 0 38 1 73 3 77 8 12 32 9 37 -4z m444 -10
c50 -46 16 -138 -52 -138 -65 0 -101 60 -71 118 9 17 21 32 28 35 31 13 73 6
95 -15z m351 -61 c3 -72 1 -77 -18 -77 -18 0 -20 6 -20 81 0 71 2 80 18 77 14
-3 17 -16 20 -81z m127 63 c0 -8 -11 -17 -25 -20 -23 -5 -25 -11 -28 -63 -3
-49 -6 -57 -22 -57 -18 0 -20 7 -20 80 l0 79 48 -2 c33 -1 47 -6 47 -17z m55
-60 c0 -73 -2 -80 -20 -80 -18 0 -20 7 -20 80 0 73 2 80 20 80 18 0 20 -7 20
-80z m72 -10 c-3 -71 -7 -88 -24 -102 -11 -10 -24 -18 -29 -18 -16 0 -10 38 7
44 14 6 16 17 11 80 -7 76 -3 89 23 84 12 -3 14 -18 12 -88z m144 79 c4 -7 10
-7 16 -1 23 23 33 1 32 -70 l-1 -72 -62 -3 c-50 -2 -65 1 -81 17 -27 27 -27
93 0 120 22 22 84 28 96 9z m119 -124 c0 -30 -39 -27 -43 3 -3 20 0 23 20 20
15 -2 23 -10 23 -23z"/>
<path d="M796 981 c-21 -23 -14 -56 16 -72 17 -9 24 -7 41 10 17 17 19 25 11
48 -12 34 -44 41 -68 14z"/>
<path d="M1142 988 c-17 -17 -15 -54 4 -72 18 -19 20 -19 45 -6 36 20 19 90
-21 90 -9 0 -21 -5 -28 -12z"/>
<path d="M1317 994 c-17 -18 -6 -35 21 -32 16 2 27 9 27 18 0 16 -36 26 -48
14z"/>
<path d="M540 980 c-11 -20 -9 -21 22 -18 21 2 33 8 33 18 0 24 -42 24 -55 0z"/>
<path d="M972 988 c-17 -17 -15 -28 7 -28 36 0 53 11 40 26 -14 17 -31 18 -47
2z"/>
<path d="M946 584 c-9 -8 -16 -23 -16 -33 0 -19 30 -51 48 -51 17 0 42 30 42
50 0 22 -25 50 -45 50 -7 0 -21 -7 -29 -16z"/>
<path d="M518 589 c-28 -16 -23 -67 7 -81 31 -14 55 3 55 41 0 44 -27 61 -62
40z"/>
<path d="M696 584 c-9 -8 -16 -24 -16 -34 0 -21 25 -50 44 -50 16 0 46 32 46
48 0 14 -36 52 -49 52 -5 0 -17 -7 -25 -16z"/>
<path d="M1461 586 c-17 -20 -10 -67 12 -80 24 -15 51 4 55 38 6 48 -39 75
-67 42z"/>
</g>
</svg>
