<?xml version="1.0" standalone="no"?>
<!DOCTYPE svg PUBLIC "-//W3C//DTD SVG 20010904//EN"
 "http://www.w3.org/TR/2001/REC-SVG-20010904/DTD/svg10.dtd">
<svg version="1.0" xmlns="http://www.w3.org/2000/svg"
 width="238.000000pt" height="212.000000pt" viewBox="0 0 238.000000 212.000000"
 preserveAspectRatio="xMidYMid meet">

<g transform="translate(0.000000,212.000000) scale(0.100000,-0.100000)"
fill="#000000" stroke="none">
<path d="M1055 2000 c-100 -11 -188 -36 -282 -80 -104 -49 -161 -88 -247 -169
-184 -177 -276 -394 -276 -653 0 -232 83 -444 239 -610 90 -96 172 -156 283
-207 136 -63 201 -76 378 -76 177 0 242 13 378 76 111 51 194 111 281 205 276
295 320 733 111 1086 -51 84 -162 204 -247 264 -173 124 -409 187 -618 164z
m242 -166 c159 -33 282 -102 397 -225 84 -89 152 -212 183 -329 24 -88 24
-272 0 -360 -18 -70 -94 -230 -128 -269 l-20 -25 -525 525 c-288 288 -524 527
-524 530 0 12 126 89 186 113 133 54 292 69 431 40z m-197 -789 c296 -297 521
-529 515 -533 -107 -78 -205 -123 -317 -146 -380 -78 -750 149 -869 534 -20
62 -24 97 -24 200 0 134 18 217 71 325 27 54 86 145 94 145 3 0 241 -236 530
-525z"/>
<path d="M1157 1592 c-9 -9 -33 -58 -53 -107 -20 -50 -45 -97 -56 -105 -18
-15 -18 -16 9 -42 17 -15 39 -26 55 -26 38 1 58 -19 58 -56 0 -26 14 -45 78
-109 l77 -77 153 0 152 0 0 -49 c0 -42 4 -53 26 -70 33 -26 45 -26 78 0 22 17
26 28 26 70 l0 49 35 0 35 0 0 118 c0 98 -3 122 -19 149 -11 17 -28 34 -39 37
-13 5 -33 39 -61 109 -23 56 -50 108 -59 115 -11 9 -77 12 -247 12 -209 0
-233 -2 -248 -18z m460 -44 c11 -18 63 -141 63 -150 0 -4 -124 -8 -275 -8
-151 0 -275 2 -275 4 0 2 9 26 21 53 11 26 27 63 34 81 l14 32 205 0 c153 0
207 -3 213 -12z m121 -251 c21 -17 14 -65 -13 -83 -44 -29 -94 9 -81 62 10 39
57 49 94 21z"/>
<path d="M595 1308 c-58 -174 -29 -284 88 -333 l37 -15 0 -109 0 -109 -75 -7
c-55 -5 -75 -11 -75 -21 0 -11 30 -14 170 -14 140 0 170 3 170 14 0 10 -20 16
-75 21 l-75 7 0 109 0 109 37 15 c44 18 80 50 98 85 20 39 28 106 15 129 -10
20 -19 21 -170 21 -88 0 -160 2 -160 5 0 3 12 41 26 85 l26 79 47 4 46 3 -51
2 -51 2 -28 -82z"/>
<path d="M990 1090 c0 -14 7 -20 22 -20 20 0 21 1 3 20 -10 11 -20 20 -22 20
-1 0 -3 -9 -3 -20z"/>
<path d="M1050 1017 c0 -59 56 -105 97 -79 9 6 -4 24 -42 62 l-55 54 0 -37z"/>
</g>
</svg>
