<?xml version="1.0" encoding="utf-8"?>
<!-- Generator: Adobe Illustrator 25.4.1, SVG Export Plug-In . SVG Version: 6.00 Build 0)  -->
<svg version="1.1" id="Layer_1" xmlns="http://www.w3.org/2000/svg" xmlns:xlink="http://www.w3.org/1999/xlink" x="0px" y="0px"
	 viewBox="0 0 110 111" style="enable-background:new 0 0 110 111;" xml:space="preserve">
<style type="text/css">
	.st0{fill:#F63EC7;}
</style>
<g id="Group_92" transform="translate(0 0)">
	<path id="Path_763" class="st0" d="M55.5,47.5c-5.5,0-9.9,5.3-9.9,11.9s4.5,11.9,9.9,11.9s9.9-5.3,9.9-11.9S61,47.5,55.5,47.5z
		 M55.5,75.4c-7.7,0-13.9-7.1-13.9-15.9s6.2-15.9,13.9-15.9s13.9,7.1,13.9,15.9S63.2,75.4,55.5,75.4z"/>
	<path id="Path_764" class="st0" d="M55.5,103.2c-10,0-17.3-1.2-21.9-3.5c-4.9-2.5-5.9-6-5.9-8.4c0-7.7,8.1-18.6,20-22.6
		c1-0.3,2.2,0.2,2.5,1.3c0.3,1-0.2,2.2-1.3,2.5c-11.2,3.7-17.3,13.5-17.3,18.8c0,5.1,8.7,8,23.9,8s23.9-2.9,23.9-8
		c0-5.3-6.2-15.1-17.3-18.8c-1-0.3-1.6-1.5-1.3-2.5c0.3-1,1.5-1.6,2.5-1.3c12,4,20,14.9,20,22.6c0,2.4-1,5.9-5.9,8.4
		C72.8,102,65.5,103.2,55.5,103.2L55.5,103.2z"/>
	<path id="Path_765" class="st0" d="M55.5,27.7c-1.1,0-2-0.9-2-2l0,0v-0.8c0-2.4,1.4-4.5,3.6-5.5c1.4-0.6,2.4-2.1,2.4-3.6
		c0-2.2-1.8-4-4-4c-2.2,0-4,1.8-4,4c0,1.1-0.9,2-2,2c0,0,0,0,0,0c-1.1,0-2-0.9-2-2c0,0,0,0,0,0c0-4.4,3.6-7.9,8-8c4.4,0,7.9,3.6,8,8
		c0,3.2-1.9,6-4.8,7.3c-0.7,0.3-1.2,1-1.2,1.8v0.8C57.5,26.8,56.6,27.7,55.5,27.7L55.5,27.7L55.5,27.7z"/>
	<path id="Path_766" class="st0" d="M58.5,33.6c0-1.6-1.3-3-3-3c-1.6,0-3,1.3-3,3c0,1.6,1.3,3,3,3C57.1,36.6,58.5,35.3,58.5,33.6z"
		/>
	<path id="Path_767" class="st0" d="M95.3,47.5c-1.1,0-2-0.9-2-2c0,0,0,0,0,0v-0.8c0-2.4,1.4-4.5,3.6-5.5c1.4-0.6,2.4-2.1,2.4-3.6
		c0-2.2-1.8-4-4-4c-2.2,0-4,1.8-4,4c0,1.1-0.9,2-2,2c0,0,0,0,0,0c-1.1,0-2-0.9-2-2c0,0,0,0,0,0c0-4.4,3.6-7.9,8-8c4.4,0,7.9,3.6,8,8
		c0,3.2-1.9,6-4.8,7.3c-0.7,0.3-1.2,1-1.2,1.8v0.8C97.2,46.7,96.4,47.5,95.3,47.5C95.3,47.5,95.3,47.5,95.3,47.5L95.3,47.5z"/>
	<path id="Path_768" class="st0" d="M98.2,53.5c0-1.6-1.3-3-3-3c-1.6,0-3,1.3-3,3c0,1.6,1.3,3,3,3C96.9,56.5,98.2,55.2,98.2,53.5
		L98.2,53.5z"/>
	<path id="Path_769" class="st0" d="M15.7,47.5c-1.1,0-2-0.9-2-2c0,0,0,0,0,0v-0.8c0-2.4,1.4-4.5,3.6-5.5c1.4-0.6,2.4-2.1,2.4-3.6
		c0-2.2-1.8-4-4-4c-2.2,0-4,1.8-4,4c0,1.1-0.9,2-2,2c0,0,0,0,0,0c-1.1,0-2-0.9-2-2c0,0,0,0,0,0c0-4.4,3.6-7.9,8-8c4.4,0,7.9,3.6,8,8
		c0,3.2-1.9,6-4.8,7.3c-0.7,0.3-1.2,1-1.2,1.8v0.8C17.7,46.7,16.8,47.5,15.7,47.5C15.7,47.5,15.7,47.5,15.7,47.5L15.7,47.5z"/>
	<path id="Path_770" class="st0" d="M18.4,53.5c0-1.5-1.2-2.6-2.6-2.7c0,0,0,0,0,0c-1.5,0-2.6,1.2-2.6,2.6c0,0,0,0,0,0
		c0,1.5,1.2,2.6,2.6,2.7c0,0,0,0,0,0C17.2,56.2,18.4,55,18.4,53.5C18.4,53.5,18.4,53.5,18.4,53.5z"/>
</g>
</svg>
