<?xml version="1.0" encoding="utf-8"?>
<!-- Generator: Adobe Illustrator 25.4.1, SVG Export Plug-In . SVG Version: 6.00 Build 0)  -->
<svg version="1.1" id="Layer_1" xmlns="http://www.w3.org/2000/svg" xmlns:xlink="http://www.w3.org/1999/xlink" x="0px" y="0px"
	 viewBox="0 0 110 111" style="enable-background:new 0 0 110 111;" xml:space="preserve">
<style type="text/css">
	.st0{fill:#F63EC7;}
</style>
<g id="Group_130" transform="translate(0)">
	<g id="Group_129" transform="translate(0)">
		<g id="Group_120" transform="translate(12.037 79.838)">
			<path id="Path_791" class="st0" d="M19.4,31.2h-3.4V6.5L13,1.9L15.8,0l3.6,5.5V31.2z"/>
		</g>
		<g id="Group_121" transform="translate(65.492 79.838)">
			<path id="Path_792" class="st0" d="M16.4,31.2H13V5.5L16.6,0l2.8,1.9l-3.1,4.6L16.4,31.2z"/>
		</g>
		<g id="Group_122" transform="translate(52.058 44.061)">
			<path id="Path_793" class="st0" d="M44.9,66.9h-3.4V31.2c0-6.1-3.7-11.7-9.4-14L13,9.3V0h3.4v7l17.1,7
				c6.9,2.8,11.5,9.6,11.4,17.1V66.9z"/>
		</g>
		<g id="Group_123" transform="translate(0 50.356)">
			<path id="Path_794" class="st0" d="M16.4,60.6H13V24.9c0-7.5,4.5-14.2,11.4-17.1L43.3,0L55,6.6l10.9-6.2l1.7,2.9L55,10.5
				L43.1,3.7l-17.4,7.2c-5.7,2.3-9.4,7.9-9.4,14L16.4,60.6z"/>
		</g>
		<g id="Group_124" transform="translate(25.452 80.847)">
			<path id="Path_795" class="st0" d="M18.4,18.9c-1.8,0-3.6-0.3-5.4-0.8l1-3.2c4.6,1.4,9.6,0.5,13.4-2.4c3.8-3,6-7.6,5.9-12.4
				L36.6,0c0.2,5.9-2.5,11.6-7.2,15.2C26.3,17.6,22.4,18.9,18.4,18.9z"/>
		</g>
		<g id="Group_125" transform="translate(33.94 81.001)">
			<path id="Path_796" class="st0" d="M31.3,18.4c-3.9,0-7.6-1.2-10.8-3.5c-4.8-3.5-7.6-9-7.5-14.9l3.4,0c0,4.8,2.2,9.3,6.1,12.1
				c3.9,2.8,9,3.6,13.6,2.1l1,3.2C35.2,18,33.3,18.4,31.3,18.4z"/>
		</g>
		<g id="Group_126" transform="translate(33.915 70.371)">
			<path id="Path_797" class="st0" d="M21.3,24.4l-1-0.7c-6.4-4.2-9-12.3-6.1-19.3c1.4-3.6,5.5-5.3,9.1-3.9c1.6,0.6,2.9,1.9,3.7,3.4
				c1,2,1.5,4.1,1.6,6.4c0.2,5.2-2.1,10.2-6.2,13.4L21.3,24.4z M20.7,3.4c0,0-0.1,0-0.1,0c-1.4,0-2.7,0.9-3.2,2.3
				c-2.1,5.2-0.5,11.1,3.8,14.6c2.7-2.5,4.1-6.1,4-9.8c-0.1-1.7-0.5-3.4-1.2-5C23.3,4.1,22,3.3,20.7,3.4z"/>
		</g>
		<g id="Group_127" transform="translate(13.425)">
			<path id="Path_798" class="st0" d="M13,59.4l2.5-31.8C15,16,20.1,13.4,22.9,12c0.3-0.2,0.7-0.3,1-0.5c0-2.9,1.2-5.7,3.5-7.5
				C34-1.7,48.4,0.3,50,0.5c6.8,0.1,13.3,7.2,13.3,14.4v19.2l-1.7,0c-12-0.2-14.6-5.6-16.6-9.5c-1.6-3.2-2.4-4.9-7.5-4.3l-0.2,0
				h-4.1c0,0.2,0,0.3,0.1,0.5c0.5,4.1,1.5,12.8-0.4,20.7C30.7,51.7,24.7,57.6,15.1,59L13,59.4z M42.3,3.4c-0.3,0-0.5,0-0.8,0
				c-5.5,0.1-9.7,1.2-12,3.2c-1.5,1.3-2.4,3.2-2.3,5.2c0,1.9-1.6,2.7-2.9,3.3c-2.4,1.2-6,3-5.5,12.5l0,0.1l-2.2,27.7
				c6.9-1.7,11.2-6.5,13-14.5c1.7-7.4,0.7-15.6,0.3-19.6c-0.1-1.2-0.2-2-0.2-2.6V17h7.5c7.3-0.9,9.2,2.8,10.8,6.1
				c1.7,3.4,3.5,7,11.9,7.5V14.9c0-5.9-5.6-11-10.1-11h-0.1l-0.1,0C47.2,3.5,44.8,3.4,42.3,3.4L42.3,3.4z"/>
		</g>
		<g id="Group_128" transform="translate(28.746 30.391)">
			<path id="Path_799" class="st0" d="M26.2,20.2c-5,0-9.8-2-13.2-5.6l2.4-2.3c5.8,6,15.4,6.1,21.4,0.3c2.9-2.8,4.6-6.8,4.6-10.8V0
				h3.4v1.7C44.7,11.9,36.4,20.1,26.2,20.2z"/>
		</g>
	</g>
</g>
</svg>
