<?xml version="1.0" encoding="utf-8"?>
<!-- Generator: Adobe Illustrator 25.4.1, SVG Export Plug-In . SVG Version: 6.00 Build 0)  -->
<svg version="1.1" id="Layer_1" xmlns="http://www.w3.org/2000/svg" xmlns:xlink="http://www.w3.org/1999/xlink" x="0px" y="0px"
	 viewBox="0 0 110 111" style="enable-background:new 0 0 110 111;" xml:space="preserve">
<style type="text/css">
	.st0{fill:#F63EC7;}
</style>
<g id="Group_96" transform="translate(0 0)">
	<g id="Group_95">
		<path id="Path_771" class="st0" d="M39.4,44.8c-5.4,0-9.8,5.2-9.8,11.6S34,68,39.4,68s9.8-5.2,9.8-11.6S44.8,44.8,39.4,44.8z
			 M39.4,71.6c-7.4,0-13.3-6.8-13.3-15.2s6-15.2,13.3-15.2S52.8,48,52.8,56.4S46.8,71.6,39.4,71.6z"/>
		<path id="Path_772" class="st0" d="M39.4,98.4c-9.6,0-16.7-1.1-21.1-3.4c-4.7-2.4-5.7-5.7-5.7-8c0-7.4,7.8-17.8,19.3-21.6
			c0.9-0.3,1.9,0.2,2.3,1.1c0.3,0.9-0.2,1.9-1.1,2.3C22.2,72.4,16.2,81.8,16.2,87c0,4.9,8.5,7.8,23.2,7.8S62.6,92,62.6,87
			c0-5.2-6-14.7-16.9-18.3c-0.9-0.3-1.4-1.3-1.1-2.3c0.3-0.9,1.3-1.4,2.3-1.1c0,0,0,0,0,0C58.5,69.2,66.2,79.7,66.2,87
			c0,2.3-1,5.6-5.7,8C56.1,97.2,49,98.4,39.4,98.4L39.4,98.4z"/>
		<path id="Path_773" class="st0" d="M96.6,59.1H75.2c-1,0-1.8-0.8-1.8-1.8s0.8-1.8,1.8-1.8h19.7V16.2h-50v19.7c0,1-0.8,1.8-1.8,1.8
			s-1.8-0.8-1.8-1.8V14.4c0-1,0.8-1.8,1.8-1.8h53.6c1,0,1.8,0.8,1.8,1.8v42.9C98.4,58.3,97.6,59.1,96.6,59.1L96.6,59.1z"/>
		<path id="Path_774" class="st0" d="M64.4,59.1h-7.1c-1,0-1.8-0.8-1.8-1.8s0.8-1.8,1.8-1.8h7.1c1,0,1.8,0.8,1.8,1.8
			S65.4,59.1,64.4,59.1z"/>
		<path id="Path_775" class="st0" d="M64.4,69.8c-0.2,0-0.5,0-0.7-0.1c-0.7-0.3-1.1-0.9-1.1-1.7V57.3c0-1,0.8-1.8,1.8-1.8
			s1.8,0.8,1.8,1.8v6.4l7.7-7.7c0.7-0.7,1.8-0.7,2.5,0c0.7,0.7,0.7,1.8,0,2.5L65.7,69.3C65.4,69.6,64.9,69.8,64.4,69.8L64.4,69.8z"
			/>
		<g id="Group_94" transform="translate(40.111 8.273)">
			<path id="Path_776" class="st0" d="M29.6,43.2l-1-0.7c-14-9.1-16-14.6-16-19.2c0-2.7,0.9-5.3,2.7-7.3c1.9-2.2,4.7-3.4,7.7-3.4
				c2.4,0,4.7,0.7,6.7,2.2c1.9-1.5,4.3-2.2,6.7-2.2c2.9,0,5.7,1.2,7.7,3.4c1.7,2,2.7,4.6,2.7,7.3c0,7.8-7.7,13.8-16,19.2L29.6,43.2z
				 M23,16.4c-4.3,0-6.6,3.6-6.6,6.9c0,3.3,1.6,7.7,13.2,15.4C41.3,31,42.9,26.6,42.9,23.3c0-3.4-2.3-6.9-6.6-6.9
				c-2-0.1-3.9,0.8-5.2,2.3l-1.5,1.8l-1.5-1.8C26.9,17.2,25,16.3,23,16.4z"/>
		</g>
	</g>
</g>
</svg>
