<?xml version="1.0" encoding="utf-8"?>
<!-- Generator: Adobe Illustrator 25.4.1, SVG Export Plug-In . SVG Version: 6.00 Build 0)  -->
<svg version="1.1" id="Layer_1" xmlns="http://www.w3.org/2000/svg" xmlns:xlink="http://www.w3.org/1999/xlink" x="0px" y="0px"
	 viewBox="0 0 110 111" style="enable-background:new 0 0 110 111;" xml:space="preserve">
<style type="text/css">
	.st0{fill:#F63EC7;}
</style>
<g id="Group_118" transform="translate(0 0)">
	<g id="Group_117" transform="translate(0 0)">
		<g id="Group_107" transform="translate(19.307 25.247)">
			<path id="Path_781" class="st0" d="M36.2,59.8l-0.8-0.5C11.2,43.3,8,33.7,8,26.3c0-4.3,1.5-8.5,4.3-11.9
				c3.1-3.5,7.5-5.5,12.2-5.5c4.4-0.1,8.6,1.6,11.8,4.6c3.2-3,7.4-4.6,11.8-4.6c4.7-0.1,9.1,1.9,12.2,5.5c2.8,3.3,4.3,7.5,4.3,11.9
				c0,7.4-3.3,17-27.4,32.9L36.2,59.8z M24.4,11.9c-8.8,0-13.5,7.4-13.5,14.4c0,6.5,3,15.1,25.2,29.9c22.2-14.8,25.2-23.4,25.2-29.9
				c0-7-4.7-14.4-13.5-14.4c-4.1-0.1-8,1.6-10.6,4.7l-1.2,1.4L35,16.7C32.4,13.6,28.5,11.8,24.4,11.9L24.4,11.9z"/>
		</g>
		<g id="Group_108" transform="translate(38.52 31.747)">
			<path id="Path_782" class="st0" d="M11.2,13.9c-0.9-1-2-1.7-3.2-2.1L8.9,9c1.8,0.6,3.4,1.6,4.7,3.1L11.2,13.9z"/>
		</g>
		<g id="Group_109" transform="translate(25.247 31.187)">
			<path id="Path_783" class="st0" d="M10.9,20.4H8c0-2.6,0.8-5.2,2.3-7.3c1.9-2.6,5-4.2,8.2-4.1c0.2,0,0.3,0,0.5,0l-0.5,2.9
				c0,0,0,0,0.1,0h-0.1C13,11.9,10.9,17,10.9,20.4z"/>
		</g>
		<g id="Group_110" transform="translate(46.679 62.822)">
			<path id="Path_784" class="st0" d="M9.7,14.5L8,12c1.6-1.1,3-2.1,4.2-3.1l1.8,2.4C12.7,12.3,11.3,13.4,9.7,14.5z"/>
		</g>
		<g id="Group_111" transform="translate(53.243 42.578)">
			<path id="Path_785" class="st0" d="M9.8,29.8L8,27.5C21.6,16.8,21.6,11.5,21.6,9h3C24.5,12,24.5,18.2,9.8,29.8z"/>
		</g>
		<g id="Group_112" transform="translate(72.771 75.741)">
			<path id="Path_786" class="st0" d="M19.9,20.9h-3v-8.9H8V9h11.9V20.9z"/>
		</g>
		<g id="Group_113" transform="translate(0 24.299)">
			<path id="Path_787" class="st0" d="M55.5,79.7C29.2,79.7,8,58.4,8,32.2C8,24.1,10.1,16.1,14,9l2.6,1.5
				c-12,21.5-4.3,48.6,17.1,60.7c6.6,3.7,14.1,5.7,21.7,5.7C69.2,76.8,81.8,71,90,61l2.3,1.9C83.5,73.6,70.1,79.7,55.5,79.7z"/>
		</g>
		<g id="Group_114" transform="translate(10.732 0)">
			<path id="Path_788" class="st0" d="M86.2,79.7l-2.6-1.5c12-21.5,4.3-48.6-17.1-60.7c-6.6-3.7-14.1-5.7-21.7-5.7
				c-13.7,0-26.3,5.8-34.5,15.8L8,25.9C16.8,15.1,30.2,9,44.8,9C71,9,92.3,30.3,92.3,56.5C92.3,64.6,90.2,72.6,86.2,79.7L86.2,79.7z
				"/>
		</g>
		<g id="Group_115" transform="translate(10.396 7.425)">
			<path id="Path_789" class="st0" d="M19.9,20.9H8V9h3v8.9h8.9L19.9,20.9z"/>
		</g>
		<g id="Group_116" transform="translate(7.447 7.425)">
			<path id="Path_790" class="st0" d="M48.1,89.2c-2.1,0-4.1-0.2-6.1-0.5l0.5-2.9c1.9,0.3,3.8,0.4,5.7,0.4V89.2z M38.9,88.1
				c-2-0.5-4-1.1-5.9-1.9l1.1-2.8c1.8,0.7,3.6,1.3,5.4,1.7L38.9,88.1z M30.2,85c-1.8-0.9-3.6-2-5.3-3.2l1.7-2.4
				c1.6,1.1,3.2,2.1,4.9,2.9L30.2,85z M22.5,79.9c-1.6-1.3-3.1-2.7-4.4-4.3l2.2-2c1.3,1.4,2.6,2.8,4.1,4L22.5,79.9z M16.1,73.3
				c-1.2-1.6-2.4-3.4-3.3-5.2l2.6-1.4c0.9,1.7,1.9,3.3,3.1,4.8L16.1,73.3z M11.4,65.3c-0.8-1.9-1.5-3.8-2.1-5.8l2.9-0.8
				c0.5,1.8,1.1,3.6,1.9,5.4L11.4,65.3z M8.6,56.5c-0.4-2-0.6-4.1-0.7-6.1l3-0.1c0.1,1.9,0.3,3.8,0.6,5.7L8.6,56.5z M85.2,47.9
				c-0.1-1.9-0.3-3.8-0.6-5.7l2.9-0.5c0.4,2,0.6,4.1,0.7,6.1L85.2,47.9z M83.9,39.4c-0.5-1.8-1.1-3.6-1.9-5.4l2.7-1.2
				c0.8,1.9,1.5,3.8,2.1,5.8L83.9,39.4z M80.8,31.5c-0.9-1.7-1.9-3.3-3.1-4.8l2.4-1.8c1.2,1.6,2.4,3.4,3.3,5.2L80.8,31.5z
				 M75.8,24.5c-1.3-1.4-2.6-2.8-4.1-4l1.9-2.3c1.6,1.3,3.1,2.7,4.4,4.3L75.8,24.5z M69.5,18.8c-1.6-1.1-3.2-2.1-4.9-2.9l1.3-2.7
				c1.8,0.9,3.6,2,5.3,3.2L69.5,18.8z M62,14.7c-1.8-0.7-3.6-1.3-5.4-1.7l0.7-2.9c2,0.5,4,1.1,5.9,1.9L62,14.7z M53.7,12.4
				C51.9,12.1,50,12,48.1,12V9c2.1,0,4.1,0.2,6.1,0.5L53.7,12.4z"/>
		</g>
	</g>
</g>
</svg>
