<?xml version="1.0" encoding="utf-8"?>
<!-- Generator: Adobe Illustrator 25.4.1, SVG Export Plug-In . SVG Version: 6.00 Build 0)  -->
<svg version="1.1" id="Layer_1" xmlns="http://www.w3.org/2000/svg" xmlns:xlink="http://www.w3.org/1999/xlink" x="0px" y="0px"
	 viewBox="0 0 110 111" style="enable-background:new 0 0 110 111;" xml:space="preserve">
<style type="text/css">
	.st0{fill:#F63EC7;}
</style>
<g id="Group_103" transform="translate(0)">
	<g id="Group_102" transform="translate(0)">
		<g id="Group_98" transform="translate(0 42.554)">
			<path id="Path_777" class="st0" d="M34.7,61.8h-6.1c-6.7,0-12.2-5.5-12.2-12.2V29.3c0-6.8,4.1-12.9,10.4-15.5l17.2-7.1l10.6,6
				L64.4,7l1.5,2.6l-11.4,6.5l-10.8-6.2l-15.8,6.5c-5.2,2.1-8.5,7.1-8.5,12.7v20.3c0,5.1,4.1,9.1,9.2,9.2h6.1L34.7,61.8z"/>
		</g>
		<g id="Group_99" transform="translate(7.629 35.308)">
			<path id="Path_778" class="st0" d="M72.8,69H34.7c-4.1,0-6.1-5.9-6.1-9.2c0-2.5,2.1-4.6,4.6-4.6h6.1c0.8,0,1.5,0.7,1.5,1.5l0,0
				c0,0.8-0.7,1.5-1.5,1.5l0,0h-6.1c-0.8,0-1.5,0.7-1.5,1.5c0,2.6,1.5,6.1,3.1,6.1h38.1c5.1,0,9.1-4.1,9.2-9.2V36.5
				c0-5.6-3.3-10.6-8.5-12.7L57,17c-0.6-0.2-0.9-0.8-0.9-1.4V8.2c0-0.8,0.7-1.5,1.5-1.5l0,0c0.8,0,1.5,0.7,1.5,1.5l0,0v6.4L74.6,21
				C80.9,23.6,85,29.7,85,36.5v20.3C85,63.6,79.5,69,72.8,69z M74.3,61.4c-0.4,0-0.8-0.2-1.1-0.4l-2.6-2.6H46.9
				c-0.5,0-1-0.3-1.3-0.7c-1.5-2.6-4-4.5-6.8-5.5c-0.8-0.3-1.2-1.1-1-1.9c0.3-0.8,1.1-1.2,1.9-1c3.2,1.1,6,3.2,7.9,6h22.1V41.6
				c0-0.4,0.2-0.8,0.4-1.1l4.6-4.6c0.6-0.6,1.6-0.6,2.2,0c0,0,0,0,0,0c0.6,0.6,0.6,1.6,0,2.2l-4.1,4.1v14l2.6,2.6
				c0.6,0.6,0.6,1.6,0,2.2c0,0,0,0,0,0C75.1,61.2,74.7,61.4,74.3,61.4z M19.4,61.4c-0.4,0-0.8-0.2-1.1-0.4c-0.6-0.6-0.6-1.6,0-2.2
				c0,0,0,0,0,0l2.6-2.6v-14l-4.1-4.1c-0.6-0.6-0.6-1.6,0-2.2c0.6-0.6,1.6-0.6,2.2,0c0,0,0,0,0,0l4.6,4.6c0.3,0.3,0.4,0.7,0.4,1.1
				v15.3c0,0.4-0.2,0.8-0.4,1.1l-3.1,3.1C20.2,61.2,19.8,61.4,19.4,61.4z M60.6,52.2c-0.3,0-0.6-0.1-0.8-0.3
				c-0.7-0.5-0.9-1.4-0.4-2.1c0,0,0,0,0,0l2.9-4.4c0.9-1.4,1.4-3,1.4-4.6c0-4.6-3.8-8.4-8.4-8.4c-2.8,0-5.4,1.4-7,3.7l-0.2,0.2
				c-0.3,0.4-0.8,0.7-1.3,0.7s-1-0.2-1.3-0.7l-0.1-0.2c-1.5-2.4-4.2-3.8-7-3.8c-4.6,0-8.4,3.8-8.4,8.4c0,1.7,0.5,3.3,1.4,4.6
				l2.9,4.4c0.5,0.7,0.3,1.6-0.4,2.1c-0.7,0.5-1.6,0.3-2.1-0.4c0,0,0,0,0,0l-2.9-4.4C27.7,45.3,27,43,27,40.8
				c0-6.3,5.1-11.4,11.4-11.4c3.2,0,6.2,1.3,8.4,3.7c2.2-2.3,5.2-3.7,8.4-3.7c6.3,0,11.4,5.1,11.4,11.4c0,2.3-0.7,4.5-1.9,6.3
				l-2.9,4.4C61.6,52,61.1,52.2,60.6,52.2L60.6,52.2z"/>
		</g>
		<g id="Group_100" transform="translate(21.362 0)">
			<path id="Path_779" class="st0" d="M49.9,28h-1.5c-4.2,0-7.6-3.4-7.6-7.6v-0.7c-3.6,1.5-7.5,2.2-11.4,2.2h-4
				c-0.7,3.5-3.9,6.1-7.5,6.1h-1.5V17.4c0-2.8,2-5.3,4.7-5.9c0.6-2.8,3.1-4.7,5.9-4.7h12.2c5.9,0,10.7,4.8,10.7,10.7L49.9,28z
				 M43.8,14.9v5.5c0,1.9,1.2,3.7,3.1,4.3v-7.4c0-4.2-3.4-7.6-7.6-7.6H27c-1.7,0-3.1,1.4-3.1,3.1v1.5h-1.5c-1.7,0-3,1.4-3.1,3.1v7.4
				c1.8-0.6,3-2.4,3.1-4.3v-1.5h6.9c4.3,0,8.4-1,12.2-2.9L43.8,14.9z"/>
		</g>
		<g id="Group_101" transform="translate(21.362 24.413)">
			<path id="Path_780" class="st0" d="M33.1,25c-9.3,0-16.8-7.5-16.8-16.8V6.7h3.1v1.5c0,7.6,6.2,13.7,13.7,13.7
				c7.6,0,13.7-6.2,13.7-13.7V6.7h3.1v1.5C49.9,17.5,42.4,25,33.1,25z"/>
		</g>
	</g>
</g>
</svg>
